<?xml version="1.0" encoding="UTF-8" standalone="no"?> <svg xmlns:dc="http://purl.org/dc/elements/1.1/" xmlns:cc="http://creativecommons.org/ns#" xmlns:rdf="http://www.w3.org/1999/02/22-rdf-syntax-ns#" xmlns:svg="http://www.w3.org/2000/svg" xmlns="http://www.w3.org/2000/svg" xmlns:sodipodi="http://sodipodi.sourceforge.net/DTD/sodipodi-0.dtd" xmlns:inkscape="http://www.inkscape.org/namespaces/inkscape" width="100mm" height="100mm" viewBox="0 0 100 100" id="svg8" inkscape:version="0.92.3 (2405546, 2018-03-11)" sodipodi:docname="galochka.svg"> <defs id="defs2"></defs> <metadata id="metadata5"></metadata> <g inkscape:label="Layer 1" inkscape:groupmode="layer" id="layer1" transform="translate(0,-197)"> <g id="g879" transform="matrix(0.01148895,0,0,-0.01064996,-4.8172187,294.632)" style="fill:#c8c8c8;stroke:none;fill-opacity:1"> <path id="path875" d="m 7312,8379 c -73,-12 -169,-54 -356,-154 -314,-170 -623,-382 -851,-584 -222,-198 -571,-570 -831,-887 -297,-363 -686,-920 -877,-1256 -401,-707 -816,-1804 -1133,-2993 -26,-99 -51,-184 -54,-188 -7,-8 -50,64 -285,478 -457,803 -699,1208 -759,1268 -87,87 -201,123 -301,93 -161,-47 -204,-76 -236,-152 l -30.2377,-30.5188 -53.1307,-1.5224 c 0,0 -111.8027,-13.4109 -111.8027,-19.4109 0,-5 35.1711,-45.5479 46.1711,-74.5479 32,-84 52,-170 42,-180 -5,-5 -48,34 -106,97 -54,58 -102,105 -107,105 -17,0 -9,-60 21,-153 58,-183 231,-507 870,-1637 331,-586 486,-916 566,-1209 19,-69 42,-137 53,-151 23,-32 108,-74 191,-97 253,-67 593,54 751,267 60,80 72,109 119,285 110,417 460,1605 581,1975 275,839 712,1800 1227,2701 314,549 624,963 992,1328 421,416 848,725 1359,981 75,37 143,76 151,85 23,28 -93.4211,7.3563 -172.4211,7.3563 -62,0 -77.1842,-32.0959 -240.1842,-101.0959 C 7564.3947,8091.2604 7494,8102 7483,8114 c -4,5 -76.1635,-29.5817 -62.1635,-19.5817 282,208 277,204 242,207 -20,2 -61,-7 -98,-22 -129.6558,11.9215 -426.3701,-172.769 -247,-12 37,33 142.1635,103.5817 137.1635,101.5817 -6,-2 -235.4739,-117.8354 -297.4739,-149.8354 -164.8554,-85.813 70.2956,43.7172 167.4739,100.8354 58,34 105,64 105,66 0,6 -60,3 -118,-7 z" inkscape:connector-curvature="0" sodipodi:nodetypes="ccccccccscccsscscsccccccccccccscccccccccsc" style="fill:#c8c8c8;fill-opacity:1"></path> </g> </g> </svg> 